<svg id="visual" viewBox="0 0 2560 1280" width="100%" height="100%" class="absolute w-full top-0 -z-10" xmlns="http://www.w3.org/2000/svg" xmlns:xlink="http://www.w3.org/1999/xlink" version="1.1"><rect x="0" y="0" width="2560" height="1280" fill="#232e4d"></rect><defs><linearGradient id="grad1_0" x1="50%" y1="100%" x2="100%" y2="0%"><stop offset="10%" stop-color="#bbdcff" stop-opacity="1"></stop><stop offset="90%" stop-color="#bbdcff" stop-opacity="1"></stop></linearGradient></defs><defs><linearGradient id="grad1_1" x1="50%" y1="100%" x2="100%" y2="0%"><stop offset="10%" stop-color="#bbdcff" stop-opacity="1"></stop><stop offset="90%" stop-color="#a3c1e4" stop-opacity="1"></stop></linearGradient></defs><defs><linearGradient id="grad1_2" x1="50%" y1="100%" x2="100%" y2="0%"><stop offset="10%" stop-color="#8ca6c9" stop-opacity="1"></stop><stop offset="90%" stop-color="#a3c1e4" stop-opacity="1"></stop></linearGradient></defs><defs><linearGradient id="grad1_3" x1="50%" y1="100%" x2="100%" y2="0%"><stop offset="10%" stop-color="#8ca6c9" stop-opacity="1"></stop><stop offset="90%" stop-color="#758caf" stop-opacity="1"></stop></linearGradient></defs><defs><linearGradient id="grad1_4" x1="50%" y1="100%" x2="100%" y2="0%"><stop offset="10%" stop-color="#607396" stop-opacity="1"></stop><stop offset="90%" stop-color="#758caf" stop-opacity="1"></stop></linearGradient></defs><defs><linearGradient id="grad1_5" x1="50%" y1="100%" x2="100%" y2="0%"><stop offset="10%" stop-color="#607396" stop-opacity="1"></stop><stop offset="90%" stop-color="#4b5b7d" stop-opacity="1"></stop></linearGradient></defs><defs><linearGradient id="grad1_6" x1="50%" y1="100%" x2="100%" y2="0%"><stop offset="10%" stop-color="#364464" stop-opacity="1"></stop><stop offset="90%" stop-color="#4b5b7d" stop-opacity="1"></stop></linearGradient></defs><defs><linearGradient id="grad1_7" x1="50%" y1="100%" x2="100%" y2="0%"><stop offset="10%" stop-color="#364464" stop-opacity="1"></stop><stop offset="90%" stop-color="#232e4d" stop-opacity="1"></stop></linearGradient></defs><defs><linearGradient id="grad2_0" x1="0%" y1="100%" x2="50%" y2="0%"><stop offset="10%" stop-color="#bbdcff" stop-opacity="1"></stop><stop offset="90%" stop-color="#bbdcff" stop-opacity="1"></stop></linearGradient></defs><defs><linearGradient id="grad2_1" x1="0%" y1="100%" x2="50%" y2="0%"><stop offset="10%" stop-color="#a3c1e4" stop-opacity="1"></stop><stop offset="90%" stop-color="#bbdcff" stop-opacity="1"></stop></linearGradient></defs><defs><linearGradient id="grad2_2" x1="0%" y1="100%" x2="50%" y2="0%"><stop offset="10%" stop-color="#a3c1e4" stop-opacity="1"></stop><stop offset="90%" stop-color="#8ca6c9" stop-opacity="1"></stop></linearGradient></defs><defs><linearGradient id="grad2_3" x1="0%" y1="100%" x2="50%" y2="0%"><stop offset="10%" stop-color="#758caf" stop-opacity="1"></stop><stop offset="90%" stop-color="#8ca6c9" stop-opacity="1"></stop></linearGradient></defs><defs><linearGradient id="grad2_4" x1="0%" y1="100%" x2="50%" y2="0%"><stop offset="10%" stop-color="#758caf" stop-opacity="1"></stop><stop offset="90%" stop-color="#607396" stop-opacity="1"></stop></linearGradient></defs><defs><linearGradient id="grad2_5" x1="0%" y1="100%" x2="50%" y2="0%"><stop offset="10%" stop-color="#4b5b7d" stop-opacity="1"></stop><stop offset="90%" stop-color="#607396" stop-opacity="1"></stop></linearGradient></defs><defs><linearGradient id="grad2_6" x1="0%" y1="100%" x2="50%" y2="0%"><stop offset="10%" stop-color="#4b5b7d" stop-opacity="1"></stop><stop offset="90%" stop-color="#364464" stop-opacity="1"></stop></linearGradient></defs><defs><linearGradient id="grad2_7" x1="0%" y1="100%" x2="50%" y2="0%"><stop offset="10%" stop-color="#232e4d" stop-opacity="1"></stop><stop offset="90%" stop-color="#364464" stop-opacity="1"></stop></linearGradient></defs><g transform="translate(2560, 1280)"><path d="M-1280 0C-1278 -140.9 -1276.1 -281.7 -1217.4 -395.5C-1158.6 -509.3 -1043.1 -596.1 -957.1 -695.3C-871 -794.6 -814.5 -906.5 -727.1 -1000.8C-639.6 -1095.1 -521.3 -1171.8 -394.9 -1215.5C-268.6 -1259.1 -134.3 -1269.5 0 -1280L0 0Z" fill="#2d3959"></path><path d="M-1120 0C-1118.3 -123.3 -1116.6 -246.5 -1065.2 -346.1C-1013.8 -445.7 -912.7 -521.6 -837.4 -608.4C-762.2 -695.3 -712.7 -793.1 -636.2 -875.7C-559.7 -958.2 -456.1 -1025.4 -345.6 -1063.5C-235 -1101.7 -117.5 -1110.8 0 -1120L0 0Z" fill="#404f70"></path><path d="M-960 0C-958.5 -105.7 -957.1 -211.3 -913 -296.7C-869 -382 -782.3 -447.1 -717.8 -521.5C-653.3 -596 -610.9 -679.8 -545.3 -750.6C-479.7 -821.3 -390.9 -878.9 -296.2 -911.6C-201.4 -944.3 -100.7 -952.2 0 -960L0 0Z" fill="#556789"></path><path d="M-800 0C-798.8 -88 -797.6 -176.1 -760.8 -247.2C-724.1 -318.3 -651.9 -372.5 -598.2 -434.6C-544.4 -496.6 -509.1 -566.5 -454.4 -625.5C-399.8 -684.4 -325.8 -732.4 -246.8 -759.7C-167.9 -786.9 -83.9 -793.5 0 -800L0 0Z" fill="#6a7fa2"></path><path d="M-640 0C-639 -70.4 -638 -140.9 -608.7 -197.8C-579.3 -254.7 -521.5 -298 -478.5 -347.7C-435.5 -397.3 -407.3 -453.2 -363.5 -500.4C-319.8 -547.5 -260.6 -585.9 -197.5 -607.7C-134.3 -629.5 -67.1 -634.8 0 -640L0 0Z" fill="#8199bc"></path><path d="M-480 0C-479.3 -52.8 -478.5 -105.7 -456.5 -148.3C-434.5 -191 -391.2 -223.5 -358.9 -260.8C-326.6 -298 -305.5 -339.9 -272.7 -375.3C-239.9 -410.6 -195.5 -439.4 -148.1 -455.8C-100.7 -472.2 -50.4 -476.1 0 -480L0 0Z" fill="#97b3d7"></path><path d="M-320 0C-319.5 -35.2 -319 -70.4 -304.3 -98.9C-289.7 -127.3 -260.8 -149 -239.3 -173.8C-217.8 -198.7 -203.6 -226.6 -181.8 -250.2C-159.9 -273.8 -130.3 -293 -98.7 -303.9C-67.1 -314.8 -33.6 -317.4 0 -320L0 0Z" fill="#afcef1"></path><path d="M-160 0C-159.8 -17.6 -159.5 -35.2 -152.2 -49.4C-144.8 -63.7 -130.4 -74.5 -119.6 -86.9C-108.9 -99.3 -101.8 -113.3 -90.9 -125.1C-80 -136.9 -65.2 -146.5 -49.4 -151.9C-33.6 -157.4 -16.8 -158.7 0 -160L0 0Z" fill="#bbdcff"></path></g><g transform="translate(0, 0)"><path d="M1280 0C1267 132.2 1254 264.4 1217.4 395.5C1180.7 526.7 1120.3 656.8 1025 744.7C929.8 832.6 799.6 878.4 691.2 951.4C582.9 1024.4 496.3 1124.8 384.7 1184.1C273.2 1243.4 136.6 1261.7 0 1280L0 0Z" fill="#2d3959"></path><path d="M1120 0C1108.6 115.7 1097.3 231.3 1065.2 346.1C1033.1 460.9 980.3 574.7 896.9 651.6C813.5 728.6 699.6 768.6 604.8 832.5C510 896.4 434.3 984.2 336.6 1036.1C239 1088 119.5 1104 0 1120L0 0Z" fill="#404f70"></path><path d="M960 0C950.3 99.1 940.5 198.3 913 296.7C885.5 395 840.2 492.6 768.8 558.5C697.3 624.5 599.7 658.8 518.4 713.6C437.2 768.3 372.2 843.6 288.5 888C204.9 932.5 102.4 946.3 0 960L0 0Z" fill="#556789"></path><path d="M800 0C791.9 82.6 783.8 165.2 760.8 247.2C737.9 329.2 700.2 410.5 640.6 465.5C581.1 520.4 499.7 549 432 594.6C364.3 640.3 310.2 703 240.5 740C170.7 777.1 85.4 788.6 0 800L0 0Z" fill="#6a7fa2"></path><path d="M640 0C633.5 66.1 627 132.2 608.7 197.8C590.3 263.3 560.1 328.4 512.5 372.4C464.9 416.3 399.8 439.2 345.6 475.7C291.4 512.2 248.1 562.4 192.4 592C136.6 621.7 68.3 630.8 0 640L0 0Z" fill="#8199bc"></path><path d="M480 0C475.1 49.6 470.3 99.1 456.5 148.3C442.8 197.5 420.1 246.3 384.4 279.3C348.7 312.2 299.8 329.4 259.2 356.8C218.6 384.2 186.1 421.8 144.3 444C102.4 466.3 51.2 473.1 0 480L0 0Z" fill="#97b3d7"></path><path d="M320 0C316.8 33 313.5 66.1 304.3 98.9C295.2 131.7 280.1 164.2 256.3 186.2C232.4 208.2 199.9 219.6 172.8 237.9C145.7 256.1 124.1 281.2 96.2 296C68.3 310.8 34.1 315.4 0 320L0 0Z" fill="#afcef1"></path><path d="M160 0C158.4 16.5 156.8 33 152.2 49.4C147.6 65.8 140 82.1 128.1 93.1C116.2 104.1 99.9 109.8 86.4 118.9C72.9 128.1 62 140.6 48.1 148C34.1 155.4 17.1 157.7 0 160L0 0Z" fill="#bbdcff"></path></g></svg>